<?xml version="1.0" encoding="utf-8"?>
<!DOCTYPE svg PUBLIC "-//W3C//DTD SVG 1.1//EN" "http://www.w3.org/Graphics/SVG/1.1/DTD/svg11.dtd">
<svg style="width:308px;height:308px;" version="1.1" id="图形" xmlns="http://www.w3.org/2000/svg" xmlns:xlink="http://www.w3.org/1999/xlink" x="0px" y="0px" width="1024px" height="1024px" viewBox="0 0 1024 1024" enable-background="new 0 0 1024 1024" xml:space="preserve">
  <path class="svgpath" data-index="path_0" fill="#000000" d="M61.352323 30.335912l901.29433 0c33.251312 0 60.208267 26.956955 60.208267 60.20929s-26.956955 60.208267-60.208267 60.208267L61.352323 150.753469c-33.252335 0-60.208267-26.955932-60.208267-60.208267S28.099988 30.335912 61.352323 30.335912z" />
<path class="svgpath" data-index="path_1" fill="#000000" d="M61.352323 451.792757l901.29433 0c33.251312 0 60.208267 26.955932 60.208267 60.208267 0 33.250288-26.956955 60.20622-60.208267 60.20622L61.352323 572.207243c-33.252335 0-60.208267-26.955932-60.208267-60.20622C1.14508 478.748688 28.099988 451.792757 61.352323 451.792757z" />
<path class="svgpath" data-index="path_2" fill="#000000" d="M61.352323 873.246531l901.29433 0c33.251312 0 60.208267 26.956955 60.208267 60.20929 0 33.252335-26.956955 60.208267-60.208267 60.208267L61.352323 993.664088c-33.252335 0-60.208267-26.955932-60.208267-60.208267C1.14508 900.203486 28.099988 873.246531 61.352323 873.246531z" />

</svg>
